<svg xmlns="http://www.w3.org/2000/svg" viewBox="0 0 32 32" width="32" height="32">
  <rect width="32" height="32" rx="7" fill="#0A0A0A"/>
  <!-- Letter S as a path for reliable rendering in all browsers -->
  <path d="M20.5 11.2C19.7 10.4 18.5 10 17 10C15.5 10 14.3 10.4 13.4 11.1C12.5 11.9 12 12.9 12 14.1C12 15.2 12.4 16.1 13.1 16.7C13.8 17.3 14.8 17.7 16.1 18L17.3 18.3C18.1 18.5 18.6 18.7 18.9 19C19.2 19.3 19.4 19.6 19.4 20.1C19.4 20.6 19.2 21 18.8 21.3C18.4 21.6 17.8 21.8 17 21.8C16.1 21.8 15.4 21.6 14.9 21.1C14.4 20.7 14.1 20.1 14 19.4L12 19.7C12.2 20.8 12.7 21.7 13.6 22.3C14.5 23 15.6 23.3 17 23.3C18.6 23.3 19.9 22.9 20.8 22.1C21.7 21.3 22.2 20.3 22.2 19C22.2 17.9 21.8 17 21.1 16.4C20.4 15.8 19.3 15.3 17.9 15L16.7 14.7C15.9 14.5 15.4 14.3 15.1 14C14.8 13.7 14.7 13.4 14.7 13C14.7 12.5 14.9 12.2 15.3 11.9C15.7 11.6 16.2 11.5 16.9 11.5C17.7 11.5 18.3 11.7 18.7 12.1C19.1 12.5 19.4 13 19.4 13.6L21.3 13.3C21.2 12.4 20.9 11.7 20.5 11.2Z" fill="white"/>
</svg>
